<svg width="112" height="30" viewBox="0 0 112 30" fill="none" xmlns="http://www.w3.org/2000/svg">
<path fill-rule="evenodd" clip-rule="evenodd" d="M83.0828 0.488871L87.1929 2.80488C87.3301 2.88218 87.4146 3.0251 87.4146 3.17986V7.29421C87.4146 7.45821 87.3197 7.60812 87.1695 7.68143L85.3283 8.58037C85.1909 8.64738 85.0276 8.64028 84.8968 8.56137C84.7661 8.48247 84.6865 8.34312 84.6865 8.19309V4.46803L82.8612 3.43956L81.0364 4.46803V8.19309C81.0364 8.34318 80.9569 8.48252 80.8261 8.56137C80.7549 8.60432 80.6741 8.62603 80.593 8.62603C80.5252 8.62603 80.4573 8.6109 80.3947 8.58031L78.5541 7.68143C78.4038 7.60806 78.3089 7.45821 78.3089 7.29421V3.17986C78.3089 3.02516 78.3935 2.88223 78.5306 2.80488L82.6394 0.488928C82.7767 0.411578 82.9456 0.411578 83.0828 0.488871ZM46.67 4.07318H47.0592C47.5245 4.07318 47.9388 4.33193 48.1402 4.74839C48.3418 5.1649 48.2864 5.64775 47.9958 6.00845L38.5493 17.7341V27.7321C38.5493 28.2429 38.1307 28.6586 37.6164 28.6586H36.6861C36.1717 28.6586 35.7532 28.2429 35.7532 27.7321V17.6458L26.6593 5.99401C26.3766 5.63187 26.3272 5.15149 26.5303 4.74009C26.7333 4.32875 27.146 4.07318 27.6073 4.07318H28.0359C28.4071 4.07318 28.7514 4.23967 28.9801 4.52993L37.3511 15.1418L45.7259 4.52969C45.9545 4.23967 46.2986 4.07318 46.67 4.07318ZM10.0392 4.98375C2.62923 4.98375 0 11.635 0 17.3307V28.3844C0 29.0377 0.524877 29.5691 1.17011 29.5691H1.4831C2.12834 29.5691 2.65328 29.0377 2.65328 28.3844V17.3307C2.65328 12.6605 4.59354 7.67002 10.0392 7.67002C15.4507 7.67002 17.3788 12.6605 17.3788 17.3307V28.3844C17.3788 29.0377 17.9036 29.5691 18.5489 29.5691H18.8624C19.5076 29.5691 20.0325 29.0377 20.0325 28.3844V17.3307C20.0325 14.1641 19.2479 11.2297 17.8232 9.06771C16.0625 6.39598 13.3708 4.98375 10.0392 4.98375ZM103.73 15.4142L103.819 15.0266C107.272 15.8084 112 16.8793 112 22.239C112 26.8973 108.851 29.5691 103.361 29.5691C99.423 29.5691 96.6313 28.0521 94.8267 24.9313C94.583 24.5103 94.6976 23.9821 95.0932 23.703L95.7071 23.2698C95.9198 23.1201 96.1878 23.0673 96.4411 23.1233C96.6965 23.1804 96.9174 23.3441 97.0467 23.5725C98.3931 25.9478 100.282 26.9612 103.361 26.9612C107.364 26.9612 109.394 25.3725 109.394 22.239C109.394 19.2862 107.424 18.5168 103.243 17.5698C99.9717 16.8296 95.9007 15.9081 95.9007 11.4989C95.9007 7.22166 99.4944 4.98375 103.044 4.98375C106.004 4.98375 108.228 5.92543 110.044 7.94741C110.216 8.13912 110.302 8.39614 110.28 8.65273C110.257 8.90812 110.129 9.14514 109.928 9.30299L109.335 9.76786C108.956 10.0645 108.406 10.0189 108.082 9.66417C106.79 8.25021 105.189 7.59164 103.044 7.59164C100.859 7.59164 98.5064 8.81438 98.5064 11.4989C98.5064 13.6037 100.125 14.1902 103.818 15.0265L103.73 15.4142ZM82.8357 10.4472H81.9773C81.4609 10.4472 81.0406 10.8672 81.0406 11.3832V28.6331C81.0406 29.1491 81.4609 29.5691 81.9773 29.5691H82.8357C83.3521 29.5691 83.7724 29.1491 83.7724 28.6331V11.3832C83.7724 10.8672 83.3521 10.4472 82.8357 10.4472ZM56.8589 9.06705C58.6315 6.39574 61.3416 4.98375 64.6958 4.98375C67.5317 4.98375 69.9552 6.03681 71.7042 8.02931C71.8715 8.21966 71.9541 8.47421 71.9312 8.72767C71.9086 8.9803 71.7821 9.21475 71.5846 9.37077L70.9253 9.8914C70.55 10.1886 70.0062 10.1404 69.6881 9.78139C68.4467 8.38035 66.767 7.67002 64.6958 7.67002C59.2382 7.67002 57.2938 12.6605 57.2938 17.3307V28.3844C57.2938 29.0377 56.7678 29.5691 56.1211 29.5691H55.8069C55.1602 29.5691 54.6341 29.0377 54.6341 28.3844V17.3307C54.6341 14.1638 55.4243 11.229 56.8589 9.06705Z" fill="white"/>
</svg>
