<svg width="48" height="48" viewBox="0 0 48 48" fill="none" xmlns="http://www.w3.org/2000/svg">
<path fill-rule="evenodd" clip-rule="evenodd" d="M3.42857 37.7143H17.1429V41.1429H3.42857C1.53592 41.1407 0.0021728 39.6069 0 37.7143V3.42857C0.00188993 1.53581 1.53581 0.00188993 3.42857 0H37.7143C39.6069 0.0021728 41.1407 1.53592 41.1429 3.42857V13.7143H37.7143V3.42857H3.42857V22.5737L9.57583 16.4271C10.9147 15.0885 13.0853 15.0885 14.4242 16.4271L24 26.0023L21.5758 28.433L12 18.8571L3.42857 27.4228V37.7143ZM30.8572 12C30.8572 14.8403 28.5546 17.1429 25.7143 17.1429C22.8753 17.1397 20.5746 14.839 20.5714 12C20.5714 9.15968 22.874 6.85715 25.7143 6.85715C28.5546 6.85715 30.8572 9.15968 30.8572 12ZM27.4286 12C27.4286 11.0532 26.6611 10.2857 25.7143 10.2857C24.7679 10.2866 24.0009 11.0536 24 12C24 12.9468 24.7675 13.7143 25.7143 13.7143C26.6611 13.7143 27.4286 12.9468 27.4286 12ZM28.5702 26.1329C30.3348 22.7116 33.8648 20.5647 37.7143 20.5714C42.1557 20.5691 46.0964 23.4192 47.485 27.638C48.8736 31.8567 47.396 36.4902 43.8215 39.1263C40.247 41.7623 35.3838 41.805 31.7637 39.2319L22.9956 48L20.5714 45.5758L29.34 36.8078C27.1028 33.6751 26.8056 29.5542 28.5702 26.1329ZM30.8572 30.8571C30.8572 34.6442 33.9272 37.7143 37.7143 37.7143C41.4996 37.71 44.5672 34.6425 44.5714 30.8571C44.5714 27.0701 41.5014 24 37.7143 24C33.9272 24 30.8572 27.0701 30.8572 30.8571Z" fill="white"/>
</svg>
