<svg width="16" height="16" viewBox="0 0 16 16" fill="none" xmlns="http://www.w3.org/2000/svg">
<path fill-rule="evenodd" clip-rule="evenodd" d="M10.3528 11.371C10.8911 10.6934 11.7078 10.2966 12.5732 10.2922C14.1493 10.2922 15.427 11.57 15.427 13.1461C15.427 14.7223 14.1493 16 12.5732 16C10.997 16 9.71927 14.7223 9.71927 13.1461C9.72197 12.8909 9.76039 12.6373 9.83343 12.3927L5.66104 9.78423C4.90605 10.7347 3.63247 11.1036 2.48638 10.7037C1.3403 10.3039 0.57251 9.22293 0.57251 8.00911C0.57251 6.79529 1.3403 5.71429 2.48638 5.31448C3.63247 4.91467 4.90605 5.28355 5.66104 6.23399L9.83343 3.62554C9.76039 3.38096 9.72197 3.12735 9.71927 2.87211C9.71052 1.48041 10.7069 0.285346 12.0775 0.043645C13.4481 -0.198056 14.7931 0.584101 15.2609 1.89485C15.7287 3.20559 15.1829 4.66264 13.969 5.34337C12.7551 6.0241 11.2272 5.72997 10.3528 4.64723L6.18045 7.25569C6.33251 7.74646 6.33251 8.27176 6.18045 8.76254L10.3528 11.371ZM14.2855 2.87211C14.2855 1.92642 13.5189 1.15978 12.5732 1.15978C11.6275 1.15978 10.8608 1.92642 10.8608 2.87211C10.8608 3.81781 11.6275 4.58445 12.5732 4.58445C13.5189 4.58445 14.2855 3.81781 14.2855 2.87211ZM3.44072 9.72145C2.49502 9.72145 1.72838 8.95481 1.72838 8.00911C1.72838 7.06342 2.49502 6.29678 3.44072 6.29678C4.38641 6.29678 5.15305 7.06342 5.15305 8.00911C5.15305 8.95481 4.38641 9.72145 3.44072 9.72145ZM10.8608 13.1461C10.8608 14.0918 11.6275 14.8584 12.5732 14.8584C13.5189 14.8584 14.2855 14.0918 14.2855 13.1461C14.2855 12.2004 13.5189 11.4338 12.5732 11.4338C11.6275 11.4338 10.8608 12.2004 10.8608 13.1461Z" fill="white"/>
</svg>
