<svg width="16" height="17" viewBox="0 0 16 17" fill="none" xmlns="http://www.w3.org/2000/svg">
<path fill-rule="evenodd" clip-rule="evenodd" d="M2.29559 10.7798H5.72169V13.7403C5.60189 14.9241 6.43019 15.9844 7.57179 16.1087C7.71594 16.1265 7.86161 16.1265 8.00576 16.1087H8.90226C9.29483 16.0976 9.63053 15.8128 9.71881 15.416V15.3449L10.2898 11.591L12.3112 8.41143H16V0.12204H5.15067C0.902306 0.12204 0.0115194 2.69767 0.0115194 4.85883V8.41143C-0.108282 9.59518 0.720016 10.6555 1.86162 10.7798C2.00577 10.7976 2.15144 10.7976 2.29559 10.7798ZM12.5739 1.30624H14.858V7.22723H12.5739V1.30624ZM5.15067 1.30624C2.42121 1.30624 1.15355 2.43715 1.15355 4.85883V8.41143C1.15355 9.26405 1.47332 9.59563 2.29559 9.59563H6.86373V13.7403C6.86373 14.5929 7.18349 14.9245 8.00576 14.9245H8.65101L8.73095 14.3324L9.14779 11.1528L11.4319 7.6417V1.30624H5.15067Z" fill="#AAABB5"/>
</svg>
