<svg width="48" height="42" viewBox="0 0 48 42" fill="none" xmlns="http://www.w3.org/2000/svg">
<path fill-rule="evenodd" clip-rule="evenodd" d="M6.70312 27.4395V22.5C6.70312 22.0862 6.36694 21.75 5.95312 21.75H3.75001C2.50926 21.75 1.5 20.7407 1.5 19.5V4.50002C1.5 3.25931 2.50926 2.25002 3.75001 2.25002H22.5C23.7407 2.25002 24.75 3.25931 24.75 4.50002V12.0758C23.0405 12.4241 21.75 13.9391 21.75 15.75V21.75H12.7031C12.5043 21.75 12.3135 21.8291 12.1728 21.9698L6.70312 27.4395ZM46.5 30.75C46.5 31.9907 45.4907 33 44.25 33H42.0469C41.6323 33 41.2969 33.3362 41.2969 33.75V38.6895L35.8272 33.2197C35.6865 33.0791 35.4953 33 35.2969 33H25.5C24.2593 33 23.25 31.9907 23.25 30.75V15.75C23.25 14.773 23.8773 13.9409 24.75 13.6311C24.9851 13.5476 25.2363 13.5 25.5 13.5H44.25C45.4907 13.5 46.5 14.5093 46.5 15.75V30.75ZM44.25 12H26.25V4.50002C26.25 2.43241 24.5676 0.750015 22.5 0.750015H3.75001C1.68165 0.750015 0 2.43241 0 4.50002V19.5C0 21.5676 1.68237 23.25 3.75001 23.25H5.20312V29.25C5.20312 29.5532 5.38549 29.8268 5.66601 29.9429C5.75832 29.9813 5.8561 30 5.95277 30C6.14796 30 6.33984 29.9238 6.48338 29.7803L13.0137 23.25H21.75V30.75C21.75 32.8176 23.4324 34.5 25.5 34.5H34.9863L41.5166 41.0303C41.6602 41.1739 41.8513 41.25 42.0469 41.25C42.1436 41.25 42.241 41.2313 42.334 41.1929C42.6138 41.0768 42.7969 40.8032 42.7969 40.5V34.5H44.25C46.3176 34.5 48 32.8176 48 30.75V15.75C48 13.6824 46.3176 12 44.25 12ZM13.1715 13.2535C12 11.8125 11.1848 10.2704 10.6817 8.54664H15.546C14.9718 10.4799 14.1936 12.022 13.1715 13.2535ZM19.1437 19.3821C19.166 19.3898 19.1894 19.3931 19.2129 19.3931C19.2905 19.3931 19.3612 19.3506 19.3982 19.2828L20.1965 17.811C20.2265 17.7554 20.2295 17.6899 20.2057 17.6302C20.1804 17.5716 20.1321 17.5276 20.072 17.5093C17.9326 16.86 15.9203 15.8232 14.5312 14.6583C15.9141 13.0302 16.9468 10.9746 17.6023 8.54702H19.8325C19.9489 8.54702 20.0438 8.45291 20.0438 8.33645V7.00709C20.0438 6.89065 19.9489 6.79615 19.8325 6.79615H14.0182V4.71095C14.0182 4.59488 13.9237 4.50003 13.8076 4.50003H12.3186C12.2018 4.50003 12.1073 4.59488 12.1073 4.71095V6.7958H6.41675C6.30031 6.7958 6.2058 6.89028 6.2058 7.00637V8.33572C6.2058 8.45181 6.30031 8.54664 6.41675 8.54664H8.68544C9.34351 10.8186 10.4121 12.9155 11.7792 14.6214C10.6729 15.5845 8.81909 16.8801 6.1765 17.7048C6.11499 17.7239 6.06665 17.7696 6.04247 17.8305C6.01941 17.8909 6.02491 17.9575 6.05821 18.0139L6.87341 19.3967C6.91114 19.4605 6.98071 19.5 7.05471 19.5C7.08069 19.5 7.10632 19.4953 7.12755 19.4865C9.34131 18.6709 11.4763 17.4434 13.1492 16.0232C14.6968 17.3687 16.9314 18.6207 19.1437 19.3821ZM32.332 25.2858H37.4333L34.8735 18.7973L32.332 25.2858ZM35.8989 16.5C35.9667 16.5 36.0286 16.5421 36.0535 16.6047L41.3306 29.7385C41.3503 29.7656 41.361 29.7993 41.361 29.8345C41.361 29.9253 41.2866 30 41.1958 30H39.3149C39.2472 30 39.1871 29.959 39.1611 29.8953L38.0376 27.059H31.708L30.5845 29.8949C30.5588 29.959 30.4984 30 30.4307 30H28.5549C28.4993 30 28.4473 29.9722 28.4172 29.9257C28.3868 29.8821 28.3799 29.8246 28.4011 29.7722L33.7119 16.6033C33.7375 16.5403 33.7972 16.5 33.865 16.5H35.8989Z" fill="#55566B"/>
</svg>
