<svg width="16" height="17" viewBox="0 0 16 17" fill="none" xmlns="http://www.w3.org/2000/svg">
<path fill-rule="evenodd" clip-rule="evenodd" d="M10.3528 11.9362C10.8911 11.2586 11.7078 10.8618 12.5732 10.8574C14.1493 10.8574 15.427 12.1352 15.427 13.7113C15.427 15.2875 14.1493 16.5652 12.5732 16.5652C10.997 16.5652 9.71927 15.2875 9.71927 13.7113C9.72197 13.4561 9.76039 13.2025 9.83343 12.9579L5.66104 10.3494C4.90605 11.2999 3.63247 11.6688 2.48638 11.269C1.3403 10.8692 0.57251 9.78815 0.57251 8.57433C0.57251 7.36051 1.3403 6.2795 2.48638 5.87969C3.63247 5.47989 4.90605 5.84877 5.66104 6.79921L9.83343 4.19076C9.76039 3.94617 9.72197 3.69257 9.71927 3.43733C9.71052 2.04563 10.7069 0.850562 12.0775 0.608861C13.4481 0.36716 14.7931 1.14932 15.2609 2.46006C15.7287 3.77081 15.1829 5.22785 13.969 5.90858C12.7551 6.58931 11.2272 6.29519 10.3528 5.21245L6.18045 7.8209C6.33251 8.31168 6.33251 8.83698 6.18045 9.32775L10.3528 11.9362ZM14.2855 3.43733C14.2855 2.49163 13.5189 1.725 12.5732 1.725C11.6275 1.725 10.8608 2.49163 10.8608 3.43733C10.8608 4.38302 11.6275 5.14966 12.5732 5.14966C13.5189 5.14966 14.2855 4.38302 14.2855 3.43733ZM3.44072 10.2867C2.49502 10.2867 1.72838 9.52002 1.72838 8.57433C1.72838 7.62863 2.49502 6.862 3.44072 6.862C4.38641 6.862 5.15305 7.62863 5.15305 8.57433C5.15305 9.52002 4.38641 10.2867 3.44072 10.2867ZM10.8608 13.7113C10.8608 14.657 11.6275 15.4237 12.5732 15.4237C13.5189 15.4237 14.2855 14.657 14.2855 13.7113C14.2855 12.7656 13.5189 11.999 12.5732 11.999C11.6275 11.999 10.8608 12.7656 10.8608 13.7113Z" fill="url(#paint0_linear_2_351)"/>
<defs>
<linearGradient id="paint0_linear_2_351" x1="0.57251" y1="0.565216" x2="0.57251" y2="16.5652" gradientUnits="userSpaceOnUse">
<stop stop-color="#AAABB5"/>
<stop offset="1" stop-color="#55566B"/>
</linearGradient>
</defs>
</svg>
