<svg width="16" height="16" viewBox="0 0 16 16" fill="none" xmlns="http://www.w3.org/2000/svg">
<path fill-rule="evenodd" clip-rule="evenodd" d="M1.14286 12.5714H5.71429V13.7143H1.14286C0.511975 13.7136 0.000724266 13.2023 0 12.5714V1.14286C0.000629977 0.511936 0.511936 0.000629977 1.14286 0H12.5714C13.2023 0.000724266 13.7136 0.511975 13.7143 1.14286V4.57143H12.5714V1.14286H1.14286V7.52457L3.19194 5.47572C3.63824 5.02949 4.36176 5.02949 4.80806 5.47572L8 8.66743L7.19195 9.47766L4 6.28572L1.14286 9.14092V12.5714ZM10.2857 4C10.2857 4.94678 9.51821 5.71429 8.57143 5.71429C7.62509 5.71325 6.85818 4.94634 6.85715 4C6.85715 3.05323 7.62466 2.28572 8.57143 2.28572C9.51821 2.28572 10.2857 3.05323 10.2857 4ZM9.14286 4C9.14286 3.68441 8.88702 3.42857 8.57143 3.42857C8.25596 3.42886 8.00029 3.68453 8 4C8 4.31559 8.25584 4.57143 8.57143 4.57143C8.88702 4.57143 9.14286 4.31559 9.14286 4ZM9.5234 8.71098C10.1116 7.57055 11.2883 6.8549 12.5714 6.85714C14.0519 6.85638 15.3655 7.8064 15.8283 9.21265C16.2912 10.6189 15.7987 12.1634 14.6072 13.0421C13.4157 13.9208 11.7946 13.935 10.5879 13.0773L7.6652 16L6.85715 15.1919L9.78 12.2693C9.03426 11.225 8.9352 9.8514 9.5234 8.71098ZM10.2857 10.2857C10.2857 11.5481 11.3091 12.5714 12.5714 12.5714C13.8332 12.57 14.8557 11.5475 14.8571 10.2857C14.8571 9.02335 13.8338 8 12.5714 8C11.3091 8 10.2857 9.02335 10.2857 10.2857Z" fill="url(#paint0_linear_2_373)"/>
<defs>
<linearGradient id="paint0_linear_2_373" x1="0" y1="0" x2="0" y2="16" gradientUnits="userSpaceOnUse">
<stop stop-color="#AAABB5"/>
<stop offset="1" stop-color="#55566B"/>
</linearGradient>
</defs>
</svg>
