<svg width="16" height="17" viewBox="0 0 16 17" fill="none" xmlns="http://www.w3.org/2000/svg">
<path fill-rule="evenodd" clip-rule="evenodd" d="M0 9.70807H1.14286V2.2795C1.14286 1.93664 1.37143 1.70807 1.71429 1.70807H9.14286V0.565216H1.71429C0.742857 0.565216 0 1.30807 0 2.2795V9.70807ZM3.42857 2.85093H14.8571C15.5429 2.85093 16 3.30807 16 3.99379V11.9938C16 12.6795 15.5429 13.1366 14.8571 13.1366H11.3143L8.91429 16.5652L8 15.8795L10.7429 11.9938H14.8571V3.99379H3.42857V11.9938H8V13.1366H3.42857C2.74286 13.1366 2.28571 12.6795 2.28571 11.9938V3.99379C2.28571 3.30807 2.74286 2.85093 3.42857 2.85093Z" fill="white"/>
</svg>
