<svg width="16" height="17" viewBox="0 0 16 17" fill="none" xmlns="http://www.w3.org/2000/svg">
<path fill-rule="evenodd" clip-rule="evenodd" d="M13.7044 5.46425H10.2783V2.50376C10.3981 1.32 9.56981 0.25966 8.42821 0.135363C8.28406 0.117599 8.13839 0.117599 7.99424 0.135363H7.09774C6.70517 0.146515 6.36947 0.431325 6.28119 0.828119V0.899171L5.71017 4.65308L3.68877 7.83265H0V16.122H10.8493C15.0977 16.122 15.9885 13.5464 15.9885 11.3852V7.83265C16.1083 6.6489 15.28 5.58855 14.1384 5.46425C13.9942 5.44649 13.8486 5.44649 13.7044 5.46425ZM3.4261 14.9378H1.14203V9.01685H3.4261V14.9378ZM10.8493 14.9378C13.5788 14.9378 14.8464 13.8069 14.8464 11.3852V7.83265C14.8464 6.98003 14.5267 6.64845 13.7044 6.64845H9.13627V2.50376C9.13627 1.65114 8.81651 1.31956 7.99424 1.31956H7.34899L7.26905 1.91166L6.85221 5.09123L4.56814 8.60238V14.9378H10.8493Z" fill="#AAABB5"/>
</svg>
